<svg height="512" viewBox="0 0 64 64" width="512" xmlns="http://www.w3.org/2000/svg"><g id="Audio_Book-Book-Music_Player-Headphone-Learning" data-name="Audio Book-Book-Music Player-Headphone-Learning"><path d="m46 20h-2v-3a12 12 0 0 0 -24 0v3h-2v-3a14 14 0 0 1 28 0z" fill="#ff9811"/><rect fill="#3d9ae2" height="30" rx="2" width="18" x="23" y="11"/><path d="m57 53v4h-2-38v-4h8 14z" fill="#3d9ae2"/><path d="m17 53v4h-2a8 8 0 1 1 0-16h2v4h-2a4 4 0 1 0 0 8z" fill="#1e81ce"/><path d="m27 57v4l-3-3-3 3v-4-4-4h6v4z" fill="#ff5023"/><path d="m55 53h-28v-4h24a4 4 0 0 0 4 4z" fill="#acabb1"/><path d="m21 49v4h-6a4 4 0 0 1 0-8h40a4 4 0 0 0 -4 4z" fill="#acabb1"/><path d="m57 41v4h-2-38v-4h8 14z" fill="#3d9ae2"/><circle cx="33" cy="33" fill="#1e81ce" r="4"/><path d="m28 17h10v8h-10z" fill="#1e81ce"/><circle cx="32" cy="32" fill="#ff9811" r="4"/><path d="m47 21v6a2.006 2.006 0 0 1 -2 2h-4v-10h4a2.006 2.006 0 0 1 2 2z" fill="#ee8700"/><path d="m23 19v10h-4a2.006 2.006 0 0 1 -2-2v-6a2.006 2.006 0 0 1 2-2z" fill="#ee8700"/><path d="m27 16h10v8h-10z" fill="#ff9811"/><rect fill="#898890" height="2" rx="1" width="36" x="15" y="48"/><g fill="#1e81ce"><path d="m16 41h2v4h-2z"/><path d="m16 53h2v4h-2z"/></g></g></svg>