<svg id="Layer_1" enable-background="new 0 0 512 512" viewBox="0 0 512 512" xmlns="http://www.w3.org/2000/svg" xmlns:xlink="http://www.w3.org/1999/xlink"><linearGradient id="SVGID_1_" gradientUnits="userSpaceOnUse" x1="253.94" x2="253.94" y1="21.058" y2="490.777"><stop offset="0" stop-color="#a03a8d"/><stop offset="1" stop-color="#1f3c8d"/></linearGradient><path clip-rule="evenodd" d="m132.05 62.23c0 10 6.12 19.7 17.25 27.32.29.18.56.4.81.63.64.6 1.13 1.31 1.46 2.09.33.79.49 1.66.45 2.56-.01.33-.05.67-.12 1l-5.53 29.15 35.03-21.62c1.15-.72 2.54-1.07 4-.88 4.57.6 9.29.91 14 .91 15.8 0 31.11-3.51 43.2-9.76-7.79-8.34-11.96-18.05-11.96-28.28 0-11.9 5.63-23.09 16.05-32.25-12.59-7.7-29.37-12.04-47.29-12.04-18.45 0-35.72 4.57-48.62 12.86-12.08 7.77-18.73 17.82-18.73 28.31zm249.04 350.24c-3.31 0-6 2.68-6 6v66.31c0 3.31 2.69 6 6 6s6-2.69 6-6v-27.96h77.74l4.54 28.89c.47 2.96 3.02 5.07 5.92 5.07.31 0 .63-.03.94-.08 3.28-.51 5.51-3.58 5-6.86l-10.7-67.94c14.72-8.92 24.41-23.95 24.41-40.95v-56.07c0-3.31-2.69-6-6-6s-6 2.69-6 6v56.07c0 20.69-19.59 37.52-43.67 37.52zm-312.48 0c-24.08 0-43.67-16.83-43.67-37.52v-56.07c0-3.31-2.69-6-6-6s-6 2.69-6 6v56.07c0 17 9.69 32.03 24.41 40.95l-10.7 67.94c-.51 3.28 1.72 6.35 5 6.86.31.05.63.08.94.08 2.9 0 5.45-2.11 5.92-5.07l4.54-28.89h77.74v27.96c0 3.31 2.69 6 6 6s6-2.69 6-6v-66.31c0-3.32-2.69-6-6-6zm14.54-199.43c16.86 0 30.58-11.68 30.58-26.04s-13.72-26.05-30.58-26.05-30.58 11.69-30.58 26.05 13.72 26.04 30.58 26.04zm94.6 100.03c-3.12-.43-6.99-.83-11.46-1.29-14.78-1.53-42.28-4.38-48.35-10.88l-24.8-26.55c-2.26-2.42-6.05-2.55-8.48-.29-2.42 2.26-2.55 6.06-.29 8.48l18.42 19.72v49.25c0 3.31 2.69 6 6 6h59.38c15.79.46 28.62 12.56 28.62 27.02v75.13c0 6.38-1.97 11.33-5.86 14.73-3.45 3.01-8.3 4.67-13.68 4.67-10.53 0-21.73-6.52-21.73-18.61v-62.86c0-3.31-2.68-6-6-6h-74.85c-12.37 0-22.44-8.48-22.44-18.91v-121.8c0-6.18 6.35-11.4 13.86-11.4h22.83c5.17 0 10.23 2.78 12.6 6.92.21.37.46.71.74 1.02 1.87 2.08 4.05 4.72 6.37 7.52 10.93 13.21 24.54 29.66 39.28 32.24l33.99 5.95c12.15 2.13 17.78 7.89 17.06 12.48-.77 4.93-8.46 9.22-21.21 7.46zm203.98 14.73c3.32 0 6 2.69 6 6s-2.68 6-6 6h-121.79v144.98c0 3.31-2.69 6-6 6s-6-2.69-6-6v-144.98h-121.79c-3.32 0-6-2.69-6-6s2.68-6 6-6zm60.06-88.32c7.51 0 13.86 5.22 13.86 11.4v121.8c0 10.43-10.07 18.91-22.44 18.91h-74.85c-3.32 0-6 2.69-6 6v62.86c0 12.09-11.2 18.61-21.73 18.61-5.38 0-10.23-1.66-13.68-4.67-3.89-3.4-5.86-8.35-5.86-14.73v-75.13c0-14.46 12.83-26.56 28.62-27.02h59.38c3.31 0 6-2.69 6-6v-49.25l18.42-19.72c2.26-2.42 2.13-6.22-.29-8.48-2.43-2.26-6.22-2.13-8.48.29l-24.8 26.55c-6.07 6.5-33.57 9.35-48.35 10.88-4.47.46-8.34.86-11.46 1.29-12.75 1.76-20.44-2.53-21.21-7.46-.72-4.59 4.91-10.35 17.06-12.48l33.99-5.95c14.74-2.58 28.35-19.03 39.28-32.24 2.32-2.8 4.5-5.44 6.37-7.52.28-.31.53-.65.74-1.02 2.37-4.14 7.43-6.92 12.6-6.92zm-17.06-78.53c-16.86 0-30.58 11.69-30.58 26.05s13.72 26.04 30.58 26.04 30.58-11.68 30.58-26.04-13.72-26.05-30.58-26.05zm-118.43-78.37c-1.12 1.13-2.65 1.76-4.24 1.76s-3.12-.63-4.24-1.76l-16.77-16.76c-2.35-2.35-2.35-6.15 0-8.49 2.34-2.34 6.14-2.34 8.48 0l12.53 12.53 28.06-28.06c2.34-2.35 6.14-2.35 8.48 0 2.35 2.34 2.35 6.14 0 8.48zm-63.66-17.23c0-10.49 6.65-20.54 18.73-28.3 12.9-8.3 30.16-12.86 48.62-12.86s35.73 4.56 48.63 12.86c12.07 7.76 18.73 17.81 18.73 28.3 0 10.03-6.17 19.76-17.36 27.4-.03.02-.06.04-.09.06-.13.09-.25.18-.37.28-.06.06-.12.11-.18.17-.08.07-.17.14-.24.22-.08.08-.15.16-.23.24-.05.06-.1.12-.16.19-.07.09-.14.19-.22.29-.04.06-.08.11-.12.17-.07.1-.13.2-.19.31-.03.06-.07.13-.11.19-.05.1-.1.2-.14.29-.04.08-.08.16-.11.25-.04.08-.07.17-.1.26-.04.1-.07.19-.1.29-.02.08-.04.16-.06.24-.03.11-.06.22-.08.33-.02.08-.03.15-.04.22-.02.12-.04.24-.05.35-.01.09-.01.17-.02.26 0 .1-.01.21-.01.32s.01.22.01.33c.01.08.01.16.01.24.02.16.04.31.07.46 0 .04.01.07.01.11l.01.04c0 .01.01.03.01.05l5.53 29.2-35.09-21.66c-.07-.04-.14-.08-.22-.12-.09-.05-.18-.11-.28-.16-.09-.04-.18-.07-.26-.11-.1-.04-.19-.08-.28-.12-.1-.04-.19-.06-.28-.09-.1-.03-.19-.06-.29-.09-.09-.03-.19-.04-.29-.07-.09-.02-.18-.04-.28-.05-.1-.02-.2-.03-.3-.04s-.19-.02-.29-.03-.21-.01-.32-.01c-.09 0-.18 0-.27 0-.11.01-.23.02-.35.03-.07.01-.15.01-.22.02-4.58.6-9.29.91-14.01.91-18.46 0-35.72-4.57-48.62-12.87-12.08-7.76-18.73-17.81-18.73-28.3zm-52.22 26.32c0-3.31 2.69-6 6-6 3.32 0 6 2.69 6 6 0 3.32-2.68 6-6 6-3.31 0-6-2.68-6-6zm-.95-41.66c0 3.32-2.69 6-6 6-3.32 0-6-2.68-6-6 0-11.42 9.84-20.71 21.93-20.71 12.1 0 21.94 9.29 21.94 20.71 0 10.57-9.08 15.04-15.71 18.3-1.04.51-2.1 1.03-3.13 1.57-.19 1.08-.11 3.63-.04 5.72.02.66.04 1.35.06 2.07.09 3.31-2.53 6.07-5.84 6.16-.06 0-.11 0-.16 0-3.24 0-5.91-2.58-6-5.84-.02-.71-.04-1.37-.06-2.01-.21-6.72-.41-13.07 6.13-16.55 1.23-.65 2.49-1.27 3.74-1.89 6.76-3.32 9.01-4.88 9.01-7.53 0-4.8-4.46-8.71-9.94-8.71s-9.93 3.91-9.93 8.71z" fill="url(#SVGID_1_)" fill-rule="evenodd"/></svg>