<svg id="Layer_1" enable-background="new 0 0 67 67" height="512" viewBox="0 0 67 67" width="512" xmlns="http://www.w3.org/2000/svg"><g><g><g><g><g><g><g><g><g><g enable-background="new"><g><path d="m19.1601601 65.2661285-4.5351467-2.6355362c-.6221123-.3615341-1.0078354-1.1303291-1.0109329-2.2230606l4.5351467 2.63554c.0030975 1.0927315.3888206 1.8615304 1.0109329 2.2230568z" fill="#d6d4d2"/></g><g><path d="m38.1252327 1.7338693 4.5351448 2.6355393c-.6301575-.3662081-1.5028572-.314548-2.4661179.241591l-4.5351486-2.6355393c.9632607-.5561386 1.8359642-.6077987 2.4661217-.241591z" fill="#d6d4d2"/></g><g><path d="m18.1492271 63.0430717-4.5351467-2.63554-.1180706-41.647253 4.5351467 2.6355381z" fill="#c4c2c0"/></g><g><path d="m21.4856281 15.4124327-4.5351467-2.6355391 18.7086296-10.8014333 4.5351486 2.6355393z" fill="#c4c2c0"/></g><g><path d="m18.0311565 21.3958168-4.5351467-2.6355381c-.0062361-2.1995888 1.5402498-4.8782082 3.4544716-5.9833851l4.5351467 2.6355391c-1.9142208 1.1051778-3.4607067 3.7837972-3.4544716 5.9833841z" fill="#d6d4d2"/></g><g><path d="m40.1942596 4.6109996c1.9142227-1.1051769 3.4708176-.2181211 3.4770508 1.9814668l.1180725 41.6472549c.006237 2.199585-1.5402489 4.8782043-3.4544716 5.9833832l-18.7086315 10.8014316c-1.9142227 1.1051788-3.4708176.2181244-3.4770527-1.9814644l-.1180706-41.6472549c-.0062351-2.1995869 1.5402508-4.8782063 3.4544716-5.9833841z" fill="#434240"/></g></g></g><g><path d="m42.3259735 48.9226608c.0015907.5434608-.3808136 1.205925-.8544655 1.4796448l-20.9998111 12.1243401c-.4728584.2729225-.858427.0531578-.8600159-.4903107l-.1166325-41.3228836c-.0015793-.5434628.3808231-1.2067223.8536701-1.4796448l20.9998226-12.124342c.4736443-.273715.858429-.0539489.8600159.4903045z" fill="#fff"/></g><g><g><path d="m22.3510189 15.4474411c.4801998-.2772436.8704891-.0554094.8720551.4963789.0015621.5512075-.3861942 1.2228289-.866396 1.5000715-.4796982.2769547-.869482.0542469-.8710442-.4969597-.001564-.5517883.385685-1.222536.8653851-1.4994907z" fill="#7e8a8c"/></g><g><path d="m25.365202 14.3356867c.1777916-.1026487.3226299-.020113.3232117.1847687.0005779.2043009-.1433201.4535379-.3211117.5561867-.1783009.1029425-.3231392.0204067-.323719-.1838942-.0005799-.2048817.1433162-.4541187.321619-.5570612z" fill="#7e8a8c"/></g><g><path d="m27.6076641 13.0410004c.1783009-.1029425.3231335-.0204039.3237133.1844778.0005798.2043018-.1433105.4535351-.3216114.5564766-.1778011.1026535-.3226318.0201139-.3232117-.1841869-.0005798-.2048817.1433106-.454115.3211098-.5567675z" fill="#7e8a8c"/></g></g></g></g><g><path d="m36.6925812 4.1096854c-.7157784-.4063017-1.8959541-.4063017-2.6117363 0-.6383247.3675728-.7157822.928555-.2321396 1.334857.058094-.0580935.1354332-.1160693.2321396-.1741629.7157822-.4061842 1.8959579-.4061842 2.6117363 0 .077343.0580935.1546822.1160693.2321396.1741629.4642791-.406302.38694-.9672842-.2321396-1.334857z" fill="#e9e8e6"/><path d="m34.0808449 5.2703795c-.0967064.0580935-.1740456.1160693-.2321396.1741629.058094.0579758.1354332.1160693.2321396.1740451.7351456.4256668 1.8959579.4256668 2.6117363 0 .077343-.0386109.1546822-.0967045.2321396-.1546803v-.0193648c-.0774574-.0580935-.1547966-.1160693-.2321396-.1741629-.7157784-.4061842-1.8959542-.4061842-2.6117363 0z" fill="#434240"/></g></g><g><g><g enable-background="new"><g><path d="m15.3144121 22.3565292-.8799477.5400562c.2426224-.1409988.5786533-.1210651.9496307.0931187l.8799486-.5400543c-.3709773-.2141838-.7070092-.2341175-.9496316-.0931206z" fill="#2d2c2b"/></g><g><path d="m16.3241081 26.1492405.8799477-.5400543c.2396355-.1392612.3882599-.4353828.389452-.8560276.0024014-.8471165-.5929317-1.8782711-1.329464-2.3035088l-.8799486.5400543c.7365332.4252377 1.3318663 1.4563942 1.3294649 2.3035107-.001194.4206429-.1498165.7167644-.389452.8560257z" fill="#494846"/></g><g><path d="m16.3296261 26.1418781.8690815-.5305023c.2378292-.1485748.386404-.4309387.4012794-.8619671l-.8840485.5453777c.0000001.416153-.1485748.7133923-.3863124.8470917z" fill="#2d2c2b"/></g><g><path d="m15.3840952 22.9897041c-.7372208-.4256344-1.3364363-.0841522-1.3388376.7629642-.0023994.8463402.5929222 1.8782654 1.330143 2.3038998.7365322.4252377 1.3357601.0829849 1.3381596-.7633533.0024013-.8471165-.5929318-1.878273-1.329465-2.3035107z" fill="#21201f"/></g></g></g><g><g enable-background="new"><g><path d="m15.3144121 26.7545013-.8799477.5400562c.2426224-.1409969.5786533-.1210632.9496307.0931206l.8799486-.5400562c-.3709773-.2141838-.7070092-.2341175-.9496316-.0931206z" fill="#2d2c2b"/></g><g><path d="m16.3241081 30.5472126.8799477-.5400543c.2396355-.1392612.3882599-.4353828.389452-.8560257.0024014-.8471165-.5929317-1.878273-1.329464-2.3035107l-.8799486.5400562c.7365332.4252377 1.3318663 1.4563923 1.3294649 2.3035088-.001194.4206429-.1498165.7167645-.389452.8560257z" fill="#494846"/></g><g><path d="m16.3296261 30.5398502.8690815-.5305004c.2378292-.1485748.386404-.4309387.4012794-.861969l-.8840485.5453777c.0000001.416153-.1485748.7133942-.3863124.8470917z" fill="#2d2c2b"/></g><g><path d="m15.3840952 27.3876781c-.7372208-.4256344-1.3364363-.0841522-1.3388376.7629642-.0023994.8463383.5929222 1.8782654 1.330143 2.3038998.7365322.4252377 1.3357601.082983 1.3381596-.7633553.0024013-.8471164-.5929318-1.878271-1.329465-2.3035087z" fill="#21201f"/></g></g></g></g></g></g></g><g><g><g enable-background="new"><g><path d="m31.7133541 53.3080978-1.4882088-.8648529-.0842361-36.0469284 1.4882107.8648529z" fill="#c4c2c0"/></g><g><path d="m31.7133541 53.3080978-1.4882088-.8648529-.0682315-29.198368 1.4882106.8648529z" fill="#b2b0af"/></g><g><path d="m31.7133541 53.3080978-1.4882088-.8648529-.0362243-15.5012474 1.4882107.8648529z" fill="#c4c2c0"/></g><g><path d="m31.6291199 17.2611694-1.4882107-.8648529 18.4561901-10.6556873 1.4882126.8648529z" fill="#d6d4d2"/></g><g><path d="m31.6291199 17.2611694-1.4882107-.8648529 13.4093227-7.7418766 1.4882126.8648539z" fill="#c4c2c0"/></g><g><path d="m31.6291199 17.2611694-1.4882107-.8648529 3.315588-1.9142542 1.4882088.8648529z" fill="#d6d4d2"/></g><g><path d="m50.0853119 6.6054821.0842323 36.0469265-18.4561901 10.6556892-.0842342-36.0469284z" fill="#e9e8e6"/></g></g></g><g><g><path d="m40.8509026 14.5121889c1.4764137-.8524075 2.6777267-.1678152 2.6825371 1.5286798.0048065 1.6965275-1.1886902 3.7682114-2.6651039 4.6206188-1.4803009.8546524-2.6816139.1656132-2.6864243-1.5309124-.0048104-1.696495 1.1886902-3.7637338 2.6689911-4.6183862z" fill="#0074d1"/></g><g><path d="m40.8703156 21.36059c2.9063377-1.6779747 5.3121071-.5648289 5.677784 2.4620724.0477676.4184132-.2650223.9870396-.6525307 1.2107677l-10.0171776 5.7834206c-.3875084.2237282-.706356.0197773-.6572533-.4545631.3473473-3.4385663 2.7389679-7.3214856 5.6491776-9.0016976z" fill="#0074d1"/></g><g><path d="m46.3278961 30.2444382c.4821968-.2783947.8709373-.0568295.872509.4972496.0015717.554081-.3846474 1.2230358-.8668442 1.5014305l-10.853756 6.2664185c-.482193.2783966-.8709526.0568733-.8725204-.4972076-.0015717-.5540771.3846588-1.2230759.8668556-1.5014725z" fill="#d6d4d2"/></g><g><path d="m40.6117516 41.6266975c.482193-.2783966.8709373-.0568657.872509.4972153.0015678.554081-.3846474 1.2230339-.8668442 1.5014305l-5.1147346 2.9529953c-.4821968.2783928-.8709526.0568695-.8725243-.4972076-.0015717-.554081.3846626-1.2230453.8668556-1.501442z" fill="#d6d4d2"/></g><g><path d="m46.339325 34.2763901c.4821968-.2783966.8709373-.0568657.8725243.502182.0015717.5540771-.3846474 1.2230339-.8668442 1.5014305l-10.853756 6.2664185c-.482193.2783966-.8709488.0568733-.8725204-.4972076-.0015869-.5590477.3846474-1.2280083.8668404-1.5064049z" fill="#d6d4d2"/></g></g></g><g><g enable-background="new"><g><path d="m63.0715218 41.6878815-1.9152565-1.1130257 2.1766128-.7824058 1.9152527 1.1130256z" fill="#ddb040"/></g><g><path d="m52.3017387 63.3295135-1.9152565-1.1130256-.4764938-2.5655136 1.9152565 1.1130256z" fill="#ddb040"/></g><g><path d="m50.0078316 56.3332672-1.9152603-1.1130257c1.0318108.599617 2.4609604.5146599 4.0390358-.3964462l1.9152565 1.1130257c-1.5780755.9111061-3.0072251.9960632-4.039032.3964462z" fill="#cea03a"/></g><g><path d="m56.1345024 41.3787193 1.9152527 1.1130257c1.0195389.5924911 1.6513557 1.8531761 1.6564369 3.645237.0102158 3.6035347-2.5211296 7.9880028-5.6593285 9.799839l-1.9152565-1.1130257c3.1381989-1.8118362 5.6695442-6.1963043 5.6593285-9.799839-.0050812-1.7920609-.636898-3.0527458-1.6564331-3.645237z" fill="#cea03a"/></g><g><path d="m60.6869011 34.9970856-1.9152565-1.1130257 2.5022049 1.4259148 1.9152565 1.1130256z" fill="#ffd651"/></g><g><path d="m44.8633041 62.4046516-1.9152565-1.1130256 1.493618-3.3934326 1.9152565 1.1130256z" fill="#ddb040"/></g><g><path d="m58.7718086 37.607933-1.9152565-1.1130256 1.9150925-2.6108475 1.9152565 1.1130257z" fill="#ddb040"/></g><g><path d="m55.0301094 43.2790375 1.9152527 1.1130295c-.748436-.434948-1.785038-.3732185-2.930397.2880554l-1.9152565-1.1130257c1.145359-.6612739 2.181961-.7230034 2.9304008-.2880592z" fill="#ffd651"/></g><g><path d="m46.3569221 59.011219-1.9152641-1.1130257c-.399128-.5658379-.7073631-1.2490463-.9094543-2.038475l1.9152527 1.1130295c.202095.7894249.5103302 1.4726334.9094657 2.0384712z" fill="#cea03a"/></g><g><path d="m51.1113815 54.4349289-1.9152603-1.1130219c-.7395897-.4298058-1.1977844-1.3439941-1.2014656-2.6420746-.0074158-2.6166725 1.8278503-5.7979927 4.1050529-7.1127357l1.9152565 1.1130257c-2.2771988 1.314743-4.1124687 4.4960632-4.1050529 7.1127357.0036812 1.2980805.4618759 2.2122689 1.2014694 2.6420708z" fill="#ddb040"/></g><g><path d="m56.2072601 37.9403496-1.9152565-1.1130257c.9137077-.2928886 1.7758141-.4012222 2.5645485-.3324165l1.9152527 1.1130257c-.7887306-.0688058-1.6508369.0395278-2.5645447.3324165z" fill="#cea03a"/></g><g><path d="m65.2596207 44.9575729-2.1739273 1.7293968c-.2311096 1.2342262-.6120644 2.4850883-1.1212578 3.7126274l1.268261 1.3994789-2.4859543 4.3058472-1.9236145-.3945847c-.7857628.9778557-1.645668 1.8637123-2.5580482 2.6251144l-.4391022 2.959343-3.5242386 2.0347176-.4764938-2.5655136c-.8313789.2154083-1.6197701.2712059-2.3347473.169796l-2.1250038 2.8967934-2.5021896-1.4259377 1.493618-3.3934326c-.3991356-.5658379-.7073708-1.2490463-.909462-2.038475l-2.6410141.9481773-.0114899-4.0520973 2.6377525-2.099514c.1969604-1.0198212.5003204-2.0561371.8949547-3.0777588l-1.5079498-1.6629753 2.485939-4.3058243 2.1344566.4375954c.7120667-.9253159 1.4981956-1.7785835 2.3280792-2.5223045l.4604149-3.1064377 3.5242348-2.0347176.454422 2.4434624c.9137077-.2928886 1.7758141-.4012222 2.5645485-.3324165l1.9150925-2.6108475 2.5022049 1.4259148-1.2561874 2.8594704c.514473.6340408.9012604 1.4416351 1.1386032 2.4054108l2.176609-.7824059zm-11.2127571 10.9792481c3.1381989-1.8118362 5.6695442-6.1963043 5.6593285-9.799839-.0102234-3.6060257-2.5581245-5.0604897-5.6963196-3.2486496-3.1360245 1.810585-5.6673546 6.1975403-5.6571312 9.803566.0102157 3.6035346 2.5580978 5.0555076 5.6941223 3.2449226" fill="#efc348"/></g><g><path d="m54.0149651 44.6801224c2.2771912-1.3147392 4.1244736-.2595367 4.1318893 2.3571358.0074043 2.6116905-1.827858 5.7955017-4.1050491 7.1102409-2.2772026 1.314743-4.1244888.2570496-4.1318932-2.354641-.0074158-2.6166725 1.8278542-5.7979927 4.105053-7.1127357z" fill="#efc348"/></g><g><path d="m45.4327087 51.76931-1.9152603-1.1130257c.1969643-1.0198212.5003242-2.0561371.8949585-3.0777588l1.9152565 1.1130257c-.3946342 1.0216217-.6979942 2.0579376-.8949547 3.0777588z" fill="#cea03a"/></g><g><path d="m49.4401093 43.160347-1.9152565-1.1130257c.7120667-.9253159 1.4981956-1.7785835 2.3280792-2.5223045l1.9152565 1.1130295c-.8298836.7437172-1.6160126 1.5969848-2.3280792 2.5223007z" fill="#cea03a"/></g><g><path d="m42.7949562 53.868824-1.9152565-1.1130257 2.6377525-2.099514 1.9152565 1.1130257z" fill="#ddb040"/></g><g><path d="m42.8064461 57.9209213-1.9152565-1.1130256-.0114899-4.0520974 1.9152565 1.1130257z" fill="#ffd651"/></g><g><path d="m51.7681885 40.6380424-1.9152565-1.1130256.4604149-3.1064377 1.9152565 1.1130257z" fill="#ddb040"/></g><g><path d="m52.2286034 37.5316048-1.9152565-1.1130257 3.5242347-2.0347176 1.9152565 1.1130257z" fill="#ffd651"/></g><g><path d="m46.3276634 48.6915512-1.9152565-1.1130257-1.5079498-1.6629753 1.9152565 1.1130257z" fill="#ddb040"/></g><g><path d="m44.8197136 47.0285759-1.9152565-1.1130257 2.485939-4.3058242 1.9152565 1.1130256z" fill="#ffd651"/></g><g><path d="m47.3056526 42.7227516-1.9152565-1.1130256 2.1344567.4375953 1.9152565 1.1130257z" fill="#ffd651"/></g></g></g><g><g><g enable-background="new"><g><path d="m3.0213792 50.4680786-1.2617143-.7332268-.0192872-6.803215 1.2617142.7332268z" fill="#c4c2c0"/></g><g><path d="m29.3437309 28.4529991-26.3434357 15.2072792-1.2588232-.7257957 26.3435061-15.2072773z" fill="#e9e8e6"/></g><g><path d="m18.1133251 34.9359779-15.1130299 8.7243004-1.2588232-.7257957 15.1130984-8.7243004z" fill="#b2b0af"/></g><g><path d="m6.8829188 41.4189529-3.8826236 2.2413254-1.2588232-.7257957 3.8826931-2.2413216z" fill="#e9e8e6"/></g><g><path d="m29.3437309 28.4529991-6.4927139 3.7480507-1.2588234-.7257957 6.4927845-3.7480488z" fill="#f25a5a"/></g><g><path d="m29.3664341 35.257164-26.3435054 15.2072792-.0226335-6.8041649 26.3434357-15.2072792z" fill="#d6d4d2"/></g><g><path d="m29.3664341 35.257164-6.4927826 3.7480507-.0226345-6.8041649 6.4927139-3.7480507z" fill="#dd4a4a"/></g></g></g></g><g><g><path d="m10.4300356 41.2014198-.8720169 3.6147461-.6725531.3883019-.6004143-1.7608605-.6058373 2.4572869-.6682129.3857956-.893969-2.5951577.6465182-.3732643.6136536 1.8330727.6316472-2.5520477.577095-.3331871.6223764 1.8430404.6229239-2.5620155z" fill="#494846"/></g><g><path d="m14.9166002 38.6110992-.8763571 3.6172562-.6682119.3857918-.6004143-1.7608605-.610178 2.4597969-.6638727.3832856-.8983097-2.5926476.6465187-.3732681.6179943 1.8305664.6316462-2.5520477.577095-.3331871.6223765 1.8430442.6229238-2.5620193z" fill="#494846"/></g><g><path d="m19.3988247 36.0232849-.8720169 3.6147499-.6725521.3882981-.6004143-1.7608567-.6058369 2.4572869-.6682138.3857917-.8939686-2.5951538.6465178-.3732681.6179943 1.8305702.627306-2.5495453.577095-.3331871.6267166 1.8405381.6229248-2.5620156z" fill="#494846"/></g><g><path d="m19.8522072 38.0437927c.1041374-.0601234.1910286-.0703278.2650185-.0331497.0696354.0347137.1089878.116848.109354.2464867.0003395.1196632-.0384178.2469292-.1076012.3717461-.0735378.1223831-.1601887.2173538-.2643261.2774811-.1084785.0626297-.1953831.0678596-.2693729.0306511-.069664-.0446548-.1090164-.1268234-.1093559-.2464867-.0003681-.1296387.0383911-.2568703.1076031-.3717461.0735377-.1223526.1602019-.2123528.2686805-.2749825z" fill="#494846"/></g></g></g></g></svg>